# xmcd
#
# Track frame offsets: 
#        150
#        15301
#        27928
#        43291
#        67633
#        91273
#        112274
#        134716
#        163092
#        177002
#
# Disc length: 2647 seconds
#
# Revision: 0
# Processed by: cddbd v1.5.2PL0 Copyright (c) Steve Scherf et al.
# Submitted via: ExactAudioCopy v0.95a5
#
DISCID=7f0a550a
DTITLE=Various Artist - Fill Your Head With Rock [CD1]
DYEAR=1970
DGENRE=Rock
TTITLE0=Chicago - Listen
TTITLE1=Santana - Savour
TTITLE2=Spirit - Give A Life, Take A Life
TTITLE3=Steamhammer - Passing Through
TTITLE4=Blood, Sweat and Tears - Smiling Phases
TTITLE5=Flock - Tired Of Waiting
TTITLE6=Black Widow - Come To The Sabbat
TTITLE7=Argent - Dance In The Smoke
TTITLE8=Byrds - Gunga Din
TTITLE9=Skin Alley - Living In Sin
EXTD=
EXTT0=
EXTT1=
EXTT2=
EXTT3=
EXTT4=
EXTT5=
EXTT6=
EXTT7=
EXTT8=
EXTT9=
PLAYORDER=
